<mxfile host="app.diagrams.net" modified="2024-01-20T06:59:50.661Z" agent="Mozilla/5.0 (Windows NT 10.0; Win64; x64) AppleWebKit/537.36 (KHTML, like Gecko) Chrome/120.0.0.0 Safari/537.36 Edg/120.0.0.0" etag="rWfnSONCsjZ3zJqc8-1s" version="22.1.21" type="github">
  <diagram id="R2lEEEUBdFMjLlhIrx00" name="Page-1">
    <mxGraphModel dx="829" dy="1890" grid="1" gridSize="10" guides="1" tooltips="1" connect="1" arrows="1" fold="1" page="1" pageScale="1" pageWidth="850" pageHeight="1100" math="0" shadow="0" extFonts="Permanent Marker^https://fonts.googleapis.com/css?family=Permanent+Marker">
      <root>
        <mxCell id="0" />
        <mxCell id="1" parent="0" />
        <mxCell id="YEW_lpGFMfUZtuyLqXXi-4" style="rounded=0;orthogonalLoop=1;jettySize=auto;html=1;exitX=0.25;exitY=0;exitDx=0;exitDy=0;elbow=vertical;" edge="1" parent="1" source="YEW_lpGFMfUZtuyLqXXi-8">
          <mxGeometry relative="1" as="geometry">
            <mxPoint x="260" y="-820" as="targetPoint" />
            <mxPoint x="270" y="-770" as="sourcePoint" />
          </mxGeometry>
        </mxCell>
        <mxCell id="YEW_lpGFMfUZtuyLqXXi-7" style="edgeStyle=none;rounded=0;orthogonalLoop=1;jettySize=auto;html=1;exitX=0.75;exitY=0;exitDx=0;exitDy=0;" edge="1" parent="1">
          <mxGeometry relative="1" as="geometry">
            <mxPoint x="290" y="-870" as="sourcePoint" />
            <mxPoint x="290" y="-870" as="targetPoint" />
          </mxGeometry>
        </mxCell>
        <mxCell id="YEW_lpGFMfUZtuyLqXXi-17" style="edgeStyle=none;rounded=0;orthogonalLoop=1;jettySize=auto;html=1;exitX=0.5;exitY=0;exitDx=0;exitDy=0;" edge="1" parent="1" source="YEW_lpGFMfUZtuyLqXXi-8">
          <mxGeometry relative="1" as="geometry">
            <mxPoint x="330" y="-850" as="targetPoint" />
          </mxGeometry>
        </mxCell>
        <mxCell id="YEW_lpGFMfUZtuyLqXXi-18" style="edgeStyle=none;rounded=0;orthogonalLoop=1;jettySize=auto;html=1;exitX=0.75;exitY=0;exitDx=0;exitDy=0;" edge="1" parent="1" source="YEW_lpGFMfUZtuyLqXXi-8">
          <mxGeometry relative="1" as="geometry">
            <mxPoint x="390" y="-820" as="targetPoint" />
          </mxGeometry>
        </mxCell>
        <mxCell id="YEW_lpGFMfUZtuyLqXXi-22" style="edgeStyle=none;rounded=0;orthogonalLoop=1;jettySize=auto;html=1;exitX=1;exitY=0.5;exitDx=0;exitDy=0;" edge="1" parent="1" source="YEW_lpGFMfUZtuyLqXXi-8">
          <mxGeometry relative="1" as="geometry">
            <mxPoint x="460" y="-760" as="targetPoint" />
          </mxGeometry>
        </mxCell>
        <mxCell id="YEW_lpGFMfUZtuyLqXXi-8" value="facility" style="whiteSpace=wrap;html=1;" vertex="1" parent="1">
          <mxGeometry x="270" y="-780" width="120" height="40" as="geometry" />
        </mxCell>
        <mxCell id="YEW_lpGFMfUZtuyLqXXi-9" style="edgeStyle=none;rounded=0;orthogonalLoop=1;jettySize=auto;html=1;exitX=0.5;exitY=0;exitDx=0;exitDy=0;" edge="1" parent="1">
          <mxGeometry relative="1" as="geometry">
            <mxPoint x="260" y="-870" as="sourcePoint" />
            <mxPoint x="260" y="-870" as="targetPoint" />
          </mxGeometry>
        </mxCell>
        <mxCell id="YEW_lpGFMfUZtuyLqXXi-10" value="&lt;u&gt;ID&lt;/u&gt;" style="ellipse;whiteSpace=wrap;html=1;" vertex="1" parent="1">
          <mxGeometry x="220" y="-840" width="70" height="30" as="geometry" />
        </mxCell>
        <mxCell id="YEW_lpGFMfUZtuyLqXXi-15" style="edgeStyle=none;rounded=0;orthogonalLoop=1;jettySize=auto;html=1;entryX=1;entryY=0.5;entryDx=0;entryDy=0;" edge="1" parent="1" source="YEW_lpGFMfUZtuyLqXXi-10" target="YEW_lpGFMfUZtuyLqXXi-10">
          <mxGeometry relative="1" as="geometry" />
        </mxCell>
        <mxCell id="YEW_lpGFMfUZtuyLqXXi-19" value="city" style="ellipse;whiteSpace=wrap;html=1;" vertex="1" parent="1">
          <mxGeometry x="365" y="-840" width="60" height="30" as="geometry" />
        </mxCell>
        <mxCell id="YEW_lpGFMfUZtuyLqXXi-20" value="address" style="ellipse;whiteSpace=wrap;html=1;" vertex="1" parent="1">
          <mxGeometry x="300" y="-870" width="60" height="30" as="geometry" />
        </mxCell>
        <mxCell id="YEW_lpGFMfUZtuyLqXXi-26" style="edgeStyle=none;rounded=0;orthogonalLoop=1;jettySize=auto;html=1;entryX=1;entryY=0.5;entryDx=0;entryDy=0;" edge="1" parent="1" source="YEW_lpGFMfUZtuyLqXXi-23" target="YEW_lpGFMfUZtuyLqXXi-8">
          <mxGeometry relative="1" as="geometry">
            <Array as="points" />
          </mxGeometry>
        </mxCell>
        <mxCell id="YEW_lpGFMfUZtuyLqXXi-23" value="manages" style="rhombus;whiteSpace=wrap;html=1;" vertex="1" parent="1">
          <mxGeometry x="440" y="-785" width="70" height="50" as="geometry" />
        </mxCell>
        <mxCell id="YEW_lpGFMfUZtuyLqXXi-25" value="" style="whiteSpace=wrap;html=1;" vertex="1" parent="1">
          <mxGeometry x="560" y="-650" width="110" height="45" as="geometry" />
        </mxCell>
      </root>
    </mxGraphModel>
  </diagram>
</mxfile>
